<?xml version="1.0" encoding="UTF-8" standalone="no"?>
<svg
   width="16"
   height="16"
   fill="currentColor"
   class="bi bi-house-add"
   viewBox="0 0 16 16"
   version="1.1"
   id="svg2"
   sodipodi:docname="home-cpp.svg"
   inkscape:version="1.3.2 (091e20e, 2023-11-25, custom)"
   xmlns:inkscape="http://www.inkscape.org/namespaces/inkscape"
   xmlns:sodipodi="http://sodipodi.sourceforge.net/DTD/sodipodi-0.dtd"
   xmlns="http://www.w3.org/2000/svg"
   xmlns:svg="http://www.w3.org/2000/svg">
  <defs
     id="defs2" />
  <sodipodi:namedview
     id="namedview2"
     pagecolor="#ffffff"
     bordercolor="#000000"
     borderopacity="0.25"
     inkscape:showpageshadow="2"
     inkscape:pageopacity="0.0"
     inkscape:pagecheckerboard="0"
     inkscape:deskcolor="#d1d1d1"
     inkscape:zoom="90.509668"
     inkscape:cx="9.7337668"
     inkscape:cy="8.0820095"
     inkscape:window-width="3840"
     inkscape:window-height="2066"
     inkscape:window-x="-11"
     inkscape:window-y="-11"
     inkscape:window-maximized="1"
     inkscape:current-layer="svg2"
     showgrid="false" />
  <path
     d="m 15.693706,8.060436 c 0,10.180371 -15.27056439,10.180371 -15.27056439,0 0,-10.1803737 15.27056439,-10.1803737 15.27056439,0"
     id="path2"
     sodipodi:nodetypes="csc"
     style="stroke-width:2.18152" />
  <path
     style="font-size:4.33333px;font-family:'Eras Bold ITC';-inkscape-font-specification:'Eras Bold ITC';text-align:center;letter-spacing:-0.17px;text-anchor:middle;fill:#ffffff;stroke-width:0.311043"
     d="m 5.4499986,9.5196294 q -0.047159,0.2318689 -0.1139684,0.6484486 -0.066809,0.412649 -0.09038,0.640587 -0.8410173,0.121825 -1.501255,0.121825 -0.6366579,0 -1.186856,-0.157207 Q 2.0112601,10.612167 1.5514518,10.250606 1.0955735,9.8851174 0.89907404,9.3938704 0.7025747,8.9026211 0.7025747,8.2934731 q 0,-0.7113275 0.26330905,-1.277245 Q 1.2331228,6.4463803 1.7283012,6.0691014 2.2274094,5.6878922 2.8208373,5.5267632 3.4142654,5.3616984 4.0469932,5.3616984 q 0.581638,0 1.4383755,0.1493329 l 0.0078,0.3301202 q 0.0078,0.2161482 0.023588,0.4755285 l 0.027504,0.4480169 Q 5.0844576,6.6546662 4.7975685,6.6153642 4.5146094,6.5760622 4.2709503,6.5760622 q -0.5305482,0 -0.9549866,0.2122197 Q 2.8915252,7.0004998 2.647866,7.4052903 2.4042068,7.8100788 2.4042068,8.3013262 q 0,0.4480189 0.2043594,0.7702768 0.2043592,0.3183297 0.550198,0.4951795 0.3497689,0.1729214 0.8606671,0.1729214 0.2790289,0 0.6052178,-0.043221 0.3301189,-0.047159 0.8252976,-0.1768403 z m 0.411293,-0.9667759 q 0.039302,-0.4165791 0.051097,-0.9785664 l 0.915687,0.0078 0.844947,0.0039 0.074666,-1.7881435 q 0.1965009,0.0078 0.5108984,0.0078 0.3104693,0 0.5108984,-0.0078 l -0.1021741,1.7881435 1.0650272,-0.0039 0.7034655,-0.0078 q -0.03537,0.4165773 -0.0511,0.9785664 l -0.6995367,-0.0039 -1.0650252,-0.0078 q -0.011701,0.2279388 -0.074666,1.7920735 -0.21615,-0.01169 -0.5108984,-0.01169 -0.2947484,0 -0.5108985,0.01169 l 0.098255,-1.7920735 -0.9392663,0.0039 z m 4.9268474,0 q 0.03929,-0.4165791 0.0511,-0.9785664 l 0.915686,0.0078 0.844947,0.0039 0.07467,-1.7881435 q 0.1965,0.0078 0.510899,0.0078 0.310468,0 0.510899,-0.0078 l -0.102175,1.7881435 1.065026,-0.0039 0.703467,-0.0078 q -0.03537,0.4165773 -0.0511,0.9785664 l -0.699538,-0.0039 -1.065027,-0.0078 q -0.0117,0.2279388 -0.07467,1.7920735 -0.216147,-0.01169 -0.510898,-0.01169 -0.294748,0 -0.510899,0.01169 l 0.09825,-1.7920735 -0.939267,0.0039 z"
     id="text4"
     aria-label="C++" />
</svg>
