<?xml version="1.0" encoding="UTF-8" standalone="no"?>
<svg
   width="16"
   height="16"
   fill="currentColor"
   class="bi bi-house-add"
   viewBox="0 0 16 16"
   version="1.1"
   id="svg2"
   sodipodi:docname="home-bp.svg"
   inkscape:version="1.3.2 (091e20e, 2023-11-25, custom)"
   xmlns:inkscape="http://www.inkscape.org/namespaces/inkscape"
   xmlns:sodipodi="http://sodipodi.sourceforge.net/DTD/sodipodi-0.dtd"
   xmlns="http://www.w3.org/2000/svg"
   xmlns:svg="http://www.w3.org/2000/svg">
  <defs
     id="defs2" />
  <sodipodi:namedview
     id="namedview2"
     pagecolor="#ffffff"
     bordercolor="#000000"
     borderopacity="0.25"
     inkscape:showpageshadow="2"
     inkscape:pageopacity="0.0"
     inkscape:pagecheckerboard="0"
     inkscape:deskcolor="#d1d1d1"
     inkscape:zoom="90.509668"
     inkscape:cx="9.7337668"
     inkscape:cy="8.0820095"
     inkscape:window-width="3840"
     inkscape:window-height="2066"
     inkscape:window-x="-11"
     inkscape:window-y="-11"
     inkscape:window-maximized="1"
     inkscape:current-layer="svg2"
     showgrid="false" />
  <path
     d="m 15.693706,8.0272904 c 0,10.2098336 -15.31475861,10.2098336 -15.31475861,0 0,-10.2098365 15.31475861,-10.2098365 15.31475861,0"
     id="path2"
     sodipodi:nodetypes="csc"
     style="stroke-width:2.18784" />
  <path
     style="font-size:4.33333px;font-family:'Eras Bold ITC';-inkscape-font-specification:'Eras Bold ITC';text-align:center;letter-spacing:-0.17px;text-anchor:middle;fill:#ffffff;stroke-width:0.311943"
     d="m 2.9557121,10.659548 q 0.082769,-0.8670987 0.1103586,-1.3637091 0.039414,-0.6779139 0.074886,-1.8603235 0.039414,-1.1824077 0.039414,-1.6671955 0,-0.1734219 -0.00395,-0.4887275 0.524201,0.011735 0.831627,0.011735 0.4296083,0 1.0011054,-0.015833 0.5714975,-0.019708 0.9813991,-0.019708 0.4926691,0 0.7015615,0.027587 0.2758954,0.035467 0.4808462,0.1261267 0.2088924,0.090641 0.3468401,0.2246568 0.153714,0.157663 0.2404231,0.3783708 0.098539,0.2522479 0.098539,0.5399662 0,0.2246587 -0.059124,0.4296095 Q 7.7444654,7.1870546 7.6380465,7.3486499 7.5355767,7.5063129 7.4055066,7.6127206 7.2754494,7.7191394 7.149319,7.7782631 7.0271413,7.8373867 6.8182433,7.8965104 q 0.2088924,0.035467 0.3350173,0.082762 0.1261267,0.043346 0.2680123,0.1458346 0.1458346,0.098539 0.2601291,0.2561876 0.1142983,0.157663 0.1694729,0.3547232 0.059124,0.1931261 0.059124,0.4099016 0,0.299543 -0.098539,0.5636139 -0.098539,0.2640716 -0.2758954,0.4532567 -0.149765,0.161593 -0.3901937,0.275895 -0.2404232,0.114299 -0.492671,0.157645 -0.2049508,0.03154 -0.7488585,0.0473 -0.5399662,0.01583 -1.1469351,0.01583 L 3.7203285,10.65556 Z M 4.7135587,7.3763955 H 5.273232 q 0.2758955,0 0.3901937,-0.011735 Q 5.781673,7.3488265 5.892026,7.3134155 6.0023752,7.2779485 6.0812105,7.1951682 6.1639725,7.1124062 6.1955087,7.0099178 6.2309757,6.907448 6.2309757,6.804967 q 0,-0.1458346 -0.070952,-0.2601291 Q 6.0930203,6.4305401 5.9393063,6.3753655 5.7855922,6.3201909 5.4702848,6.3201909 H 4.760855 Z m -0.090651,2.2032202 h 0.7567415 q 0.2995431,0 0.4414324,-0.035467 0.1734219,-0.043346 0.2640707,-0.1142982 0.090641,-0.070952 0.1418856,-0.193128 0.055175,-0.1221777 0.055175,-0.2719538 0,-0.1300572 -0.043346,-0.2285984 Q 6.1955205,8.6376311 6.1088095,8.570628 6.0220986,8.5036249 5.8959774,8.4760376 5.7698507,8.4445013 5.5018403,8.4445013 H 4.6702038 Z m 3.742933,1.0799323 0.078832,-1.0089877 0.1024698,-1.9706802 0.043346,-1.3952416 q 0.00391,-0.2246568 0.00391,-0.4493137 0,-0.1694728 -0.00391,-0.5557324 0.5202583,0.011735 0.8355677,0.011735 0.3034846,0 0.8316281,-0.015833 0.528141,-0.019708 0.894687,-0.019708 0.528144,0 0.78039,0.067003 0.256189,0.067003 0.46114,0.2128321 0.204951,0.1418856 0.338957,0.3350154 0.134006,0.1931279 0.201009,0.4414323 0.067,0.2443647 0.067,0.5005541 0,0.5281415 -0.256189,0.9656322 -0.256188,0.4374908 -0.721268,0.6542663 -0.465082,0.2167755 -1.044462,0.2167755 -0.212832,0 -0.492669,-0.047295 -0.03154,-0.1813014 -0.118247,-0.5399662 -0.08671,-0.3586648 -0.141886,-0.532083 0.173422,0.035467 0.362605,0.035467 0.398077,0 0.591203,-0.1891863 0.197069,-0.1931261 0.197069,-0.4690215 0,-0.1340062 -0.04335,-0.2364816 -0.04335,-0.1064188 -0.137955,-0.1734219 -0.09459,-0.067003 -0.208892,-0.086711 -0.114299,-0.019708 -0.26013,-0.019708 -0.141885,0 -0.295601,0.00782 l -0.331076,0.023657 q -0.05124,0.7606833 -0.07883,1.6908432 -0.05124,1.6947853 -0.05124,2.033742 v 0.512377 l -0.7843312,-0.0078 q -0.1655425,0 -0.8198032,0.0078 z"
     id="text4"
     aria-label="BP" />
</svg>
